<svg width="25" height="25" viewBox="0 0 25 25" fill="none" xmlns="http://www.w3.org/2000/svg">
<path d="M12.4999 6.77087C13.1906 6.77087 13.853 7.04524 14.3413 7.53362C14.8297 8.02199 15.1041 8.68437 15.1041 9.37504C15.1041 9.71702 15.0367 10.0557 14.9059 10.3716C14.775 10.6876 14.5832 10.9746 14.3413 11.2165C14.0995 11.4583 13.8124 11.6501 13.4965 11.781C13.1805 11.9118 12.8419 11.9792 12.4999 11.9792C11.8093 11.9792 11.1469 11.7048 10.6585 11.2165C10.1701 10.7281 9.89575 10.0657 9.89575 9.37504C9.89575 8.68437 10.1701 8.02199 10.6585 7.53362C11.1469 7.04524 11.8093 6.77087 12.4999 6.77087ZM12.4999 2.08337C14.4338 2.08337 16.2885 2.8516 17.6559 4.21905C19.0234 5.58651 19.7916 7.44117 19.7916 9.37504C19.7916 14.8438 12.4999 22.9167 12.4999 22.9167C12.4999 22.9167 5.20825 14.8438 5.20825 9.37504C5.20825 7.44117 5.97648 5.58651 7.34393 4.21905C8.71138 2.8516 10.566 2.08337 12.4999 2.08337ZM12.4999 4.16671C11.1186 4.16671 9.79382 4.71544 8.81707 5.69219C7.84032 6.66894 7.29159 7.9937 7.29159 9.37504C7.29159 10.4167 7.29159 12.5 12.4999 19.4896C17.7083 12.5 17.7083 10.4167 17.7083 9.37504C17.7083 7.9937 17.1595 6.66894 16.1828 5.69219C15.206 4.71544 13.8813 4.16671 12.4999 4.16671Z" fill="#CDAE5D"/>
</svg>
