<svg width="36" height="35" viewBox="0 0 36 35" fill="none" xmlns="http://www.w3.org/2000/svg">
<path d="M18.0001 9.47913C18.967 9.47913 19.8943 9.86324 20.5781 10.547C21.2618 11.2307 21.6459 12.158 21.6459 13.125C21.6459 13.6037 21.5516 14.0778 21.3684 14.5202C21.1852 14.9625 20.9166 15.3644 20.5781 15.703C20.2395 16.0415 19.8376 16.31 19.3953 16.4933C18.9529 16.6765 18.4789 16.7708 18.0001 16.7708C17.0331 16.7708 16.1058 16.3867 15.4221 15.703C14.7384 15.0192 14.3542 14.0919 14.3542 13.125C14.3542 12.158 14.7384 11.2307 15.4221 10.547C16.1058 9.86324 17.0331 9.47913 18.0001 9.47913ZM18.0001 2.91663C20.7075 2.91663 23.304 3.99214 25.2185 5.90658C27.1329 7.82101 28.2084 10.4175 28.2084 13.125C28.2084 20.7812 18.0001 32.0833 18.0001 32.0833C18.0001 32.0833 7.79175 20.7812 7.79175 13.125C7.79175 10.4175 8.86727 7.82101 10.7817 5.90658C12.6961 3.99214 15.2927 2.91663 18.0001 2.91663ZM18.0001 5.83329C16.0662 5.83329 14.2115 6.60152 12.8441 7.96897C11.4766 9.33642 10.7084 11.1911 10.7084 13.125C10.7084 14.5833 10.7084 17.5 18.0001 27.2854C25.2917 17.5 25.2917 14.5833 25.2917 13.125C25.2917 11.1911 24.5235 9.33642 23.1561 7.96897C21.7886 6.60152 19.934 5.83329 18.0001 5.83329Z" fill="#CDAE5D"/>
</svg>
