<svg aria-hidden="true" style="position: absolute; width: 0; height: 0; overflow: hidden;" version="1.1" xmlns="http://www.w3.org/2000/svg" xmlns:xlink="http://www.w3.org/1999/xlink">
    <defs>
        <symbol id="icon-logo" viewBox="0 0 33 32">
            <path d="M0 0h33.477v32h-33.477v-32z"></path>
        </symbol>
        <symbol id="icon-menu-open" viewBox="0 0 32 32">
            <path d="M0 7.5c0-0.398 0.158-0.779 0.439-1.061s0.663-0.439 1.061-0.439h29c0.398 0 0.779 0.158 1.061 0.439s0.439 0.663 0.439 1.061-0.158 0.779-0.439 1.061c-0.281 0.281-0.663 0.439-1.061 0.439h-29c-0.398 0-0.779-0.158-1.061-0.439s-0.439-0.663-0.439-1.061zM0 16c0-0.398 0.158-0.779 0.439-1.061s0.663-0.439 1.061-0.439h29c0.398 0 0.779 0.158 1.061 0.439s0.439 0.663 0.439 1.061-0.158 0.779-0.439 1.061c-0.281 0.281-0.663 0.439-1.061 0.439h-29c-0.398 0-0.779-0.158-1.061-0.439s-0.439-0.663-0.439-1.061zM1.5 23c-0.398 0-0.779 0.158-1.061 0.439s-0.439 0.663-0.439 1.061 0.158 0.779 0.439 1.061c0.281 0.281 0.663 0.439 1.061 0.439h29c0.398 0 0.779-0.158 1.061-0.439s0.439-0.663 0.439-1.061-0.158-0.779-0.439-1.061c-0.281-0.281-0.663-0.439-1.061-0.439h-29z"></path>
        </symbol>
        <symbol id="icon-clock" viewBox="0 0 33 32">
            <path d="M16.457 26.667c2.829 0 5.542-1.124 7.543-3.124s3.124-4.713 3.124-7.542-1.124-5.542-3.124-7.543c-2-2-4.713-3.124-7.543-3.124s-5.542 1.124-7.543 3.124c-2 2-3.124 4.714-3.124 7.543s1.124 5.542 3.124 7.542c2 2 4.713 3.124 7.543 3.124zM16.457 2.667c1.751 0 3.485 0.345 5.102 1.015s3.088 1.652 4.326 2.89c1.238 1.238 2.22 2.708 2.89 4.326s1.015 3.351 1.015 5.102c0 3.536-1.405 6.928-3.905 9.428s-5.892 3.905-9.428 3.905c-7.373 0-13.333-6-13.333-13.333 0-3.536 1.405-6.928 3.905-9.428s5.892-3.905 9.428-3.905zM17.124 9.333v7l6 3.56-1 1.64-7-4.2v-8h2z"></path>
        </symbol>
    </defs>
</svg>
