<svg aria-hidden="true" style="position: absolute; width: 0; height: 0; overflow: hidden;" version="1.1" xmlns="http://www.w3.org/2000/svg" xmlns:xlink="http://www.w3.org/1999/xlink">
    <defs>
        <symbol id="icon-logo" viewBox="0 0 33 32">
            <path d="M0 0h33.477v32h-33.477v-32z"></path>
        </symbol>
        <symbol id="icon-menu-open" viewBox="0 0 32 32">
            <path d="M0 7.5c0-0.398 0.158-0.779 0.439-1.061s0.663-0.439 1.061-0.439h29c0.398 0 0.779 0.158 1.061 0.439s0.439 0.663 0.439 1.061-0.158 0.779-0.439 1.061c-0.281 0.281-0.663 0.439-1.061 0.439h-29c-0.398 0-0.779-0.158-1.061-0.439s-0.439-0.663-0.439-1.061zM0 16c0-0.398 0.158-0.779 0.439-1.061s0.663-0.439 1.061-0.439h29c0.398 0 0.779 0.158 1.061 0.439s0.439 0.663 0.439 1.061-0.158 0.779-0.439 1.061c-0.281 0.281-0.663 0.439-1.061 0.439h-29c-0.398 0-0.779-0.158-1.061-0.439s-0.439-0.663-0.439-1.061zM1.5 23c-0.398 0-0.779 0.158-1.061 0.439s-0.439 0.663-0.439 1.061 0.158 0.779 0.439 1.061c0.281 0.281 0.663 0.439 1.061 0.439h29c0.398 0 0.779-0.158 1.061-0.439s0.439-0.663 0.439-1.061-0.158-0.779-0.439-1.061c-0.281-0.281-0.663-0.439-1.061-0.439h-29z"></path>
        </symbol>
        <symbol id="icon-clock" viewBox="0 0 33 32">
            <path d="M16.457 26.667c2.829 0 5.542-1.124 7.543-3.124s3.124-4.713 3.124-7.542-1.124-5.542-3.124-7.543c-2-2-4.713-3.124-7.543-3.124s-5.542 1.124-7.543 3.124c-2 2-3.124 4.714-3.124 7.543s1.124 5.542 3.124 7.542c2 2 4.713 3.124 7.543 3.124zM16.457 2.667c1.751 0 3.485 0.345 5.102 1.015s3.088 1.652 4.326 2.89c1.238 1.238 2.22 2.708 2.89 4.326s1.015 3.351 1.015 5.102c0 3.536-1.405 6.928-3.905 9.428s-5.892 3.905-9.428 3.905c-7.373 0-13.333-6-13.333-13.333 0-3.536 1.405-6.928 3.905-9.428s5.892-3.905 9.428-3.905zM17.124 9.333v7l6 3.56-1 1.64-7-4.2v-8h2z"></path>
        </symbol>
        <symbol id="icon-adres" viewBox="0 0 33 32">
            <path d="M16.457 8.667c0.884 0 1.732 0.351 2.357 0.976s0.976 1.473 0.976 2.357c0 0.438-0.086 0.871-0.254 1.276s-0.413 0.772-0.723 1.081c-0.31 0.309-0.677 0.555-1.081 0.723s-0.838 0.254-1.276 0.254c-0.884 0-1.732-0.351-2.357-0.976s-0.976-1.473-0.976-2.357c0-0.884 0.351-1.732 0.976-2.357s1.473-0.976 2.357-0.976zM16.457 2.667c2.475 0 4.849 0.983 6.6 2.734s2.734 4.124 2.734 6.6c0 7-9.333 17.333-9.333 17.333s-9.333-10.333-9.333-17.333c0-2.475 0.983-4.849 2.734-6.6s4.124-2.734 6.6-2.734zM16.457 5.333c-1.768 0-3.464 0.702-4.714 1.953s-1.953 2.946-1.953 4.714c0 1.333 0 4 6.667 12.947 6.667-8.947 6.667-11.613 6.667-12.947 0-1.768-0.702-3.464-1.953-4.714s-2.946-1.953-4.714-1.953z"></path>
        </symbol>
        <symbol id="icon-phone" viewBox="0 0 33 32">
            <path d="M27.411 18.63l-5.656-2.536c-0.366-0.158-0.766-0.221-1.163-0.185s-0.779 0.172-1.11 0.394c-0.046 0.031-0.091 0.065-0.134 0.1l-2.67 2.274c-1.556-0.844-3.163-2.438-4.007-3.974l2.281-2.711c0.037-0.044 0.071-0.090 0.102-0.138 0.216-0.33 0.348-0.708 0.382-1.102s-0.028-0.789-0.184-1.152c-0.004-0.007-0.007-0.014-0.010-0.022l-2.525-5.644c-0.207-0.472-0.561-0.865-1.009-1.12s-0.966-0.36-1.478-0.298c-1.737 0.228-3.332 1.081-4.486 2.399s-1.789 3.011-1.787 4.763c0 9.766 7.944 17.71 17.71 17.71 1.752 0.003 3.445-0.632 4.763-1.787s2.171-2.749 2.399-4.486c0.062-0.512-0.042-1.030-0.298-1.478s-0.648-0.802-1.12-1.009zM21.667 24.518c-3.934-0.005-7.705-1.57-10.487-4.351s-4.346-6.553-4.351-10.487c-0.003-0.991 0.334-1.954 0.954-2.728s1.486-1.312 2.454-1.525l2.252 5.026-2.293 2.731c-0.037 0.044-0.072 0.091-0.103 0.139-0.226 0.345-0.359 0.743-0.386 1.155s0.053 0.823 0.232 1.195c1.127 2.307 3.45 4.614 5.781 5.744 0.374 0.177 0.788 0.255 1.201 0.224s0.811-0.168 1.155-0.398c0.046-0.031 0.091-0.065 0.133-0.102l2.684-2.282 5.026 2.251c-0.213 0.968-0.752 1.834-1.525 2.454s-1.736 0.957-2.727 0.954z"></path>
        </symbol>
    </defs>
</svg>
