<svg aria-hidden="true" style="position: absolute; width: 0; height: 0; overflow: hidden;" version="1.1" xmlns="http://www.w3.org/2000/svg" xmlns:xlink="http://www.w3.org/1999/xlink">
    <defs>
        <symbol id="icon-logo" viewBox="0 0 33 32">
            <path d="M0 0h33.477v32h-33.477v-32z"></path>
        </symbol>
        <symbol id="icon-menu-open" viewBox="0 0 32 32">
            <path d="M0 7.5c0-0.398 0.158-0.779 0.439-1.061s0.663-0.439 1.061-0.439h29c0.398 0 0.779 0.158 1.061 0.439s0.439 0.663 0.439 1.061-0.158 0.779-0.439 1.061c-0.281 0.281-0.663 0.439-1.061 0.439h-29c-0.398 0-0.779-0.158-1.061-0.439s-0.439-0.663-0.439-1.061zM0 16c0-0.398 0.158-0.779 0.439-1.061s0.663-0.439 1.061-0.439h29c0.398 0 0.779 0.158 1.061 0.439s0.439 0.663 0.439 1.061-0.158 0.779-0.439 1.061c-0.281 0.281-0.663 0.439-1.061 0.439h-29c-0.398 0-0.779-0.158-1.061-0.439s-0.439-0.663-0.439-1.061zM1.5 23c-0.398 0-0.779 0.158-1.061 0.439s-0.439 0.663-0.439 1.061 0.158 0.779 0.439 1.061c0.281 0.281 0.663 0.439 1.061 0.439h29c0.398 0 0.779-0.158 1.061-0.439s0.439-0.663 0.439-1.061-0.158-0.779-0.439-1.061c-0.281-0.281-0.663-0.439-1.061-0.439h-29z"></path>
        </symbol>
        <symbol id="icon-clock" viewBox="0 0 33 32">
            <path d="M16.457 26.667c2.829 0 5.542-1.124 7.543-3.124s3.124-4.713 3.124-7.542-1.124-5.542-3.124-7.543c-2-2-4.713-3.124-7.543-3.124s-5.542 1.124-7.543 3.124c-2 2-3.124 4.714-3.124 7.543s1.124 5.542 3.124 7.542c2 2 4.713 3.124 7.543 3.124zM16.457 2.667c1.751 0 3.485 0.345 5.102 1.015s3.088 1.652 4.326 2.89c1.238 1.238 2.22 2.708 2.89 4.326s1.015 3.351 1.015 5.102c0 3.536-1.405 6.928-3.905 9.428s-5.892 3.905-9.428 3.905c-7.373 0-13.333-6-13.333-13.333 0-3.536 1.405-6.928 3.905-9.428s5.892-3.905 9.428-3.905zM17.124 9.333v7l6 3.56-1 1.64-7-4.2v-8h2z"></path>
        </symbol>
        <symbol id="icon-adres" viewBox="0 0 33 32">
            <path d="M16.457 8.667c0.884 0 1.732 0.351 2.357 0.976s0.976 1.473 0.976 2.357c0 0.438-0.086 0.871-0.254 1.276s-0.413 0.772-0.723 1.081c-0.31 0.309-0.677 0.555-1.081 0.723s-0.838 0.254-1.276 0.254c-0.884 0-1.732-0.351-2.357-0.976s-0.976-1.473-0.976-2.357c0-0.884 0.351-1.732 0.976-2.357s1.473-0.976 2.357-0.976zM16.457 2.667c2.475 0 4.849 0.983 6.6 2.734s2.734 4.124 2.734 6.6c0 7-9.333 17.333-9.333 17.333s-9.333-10.333-9.333-17.333c0-2.475 0.983-4.849 2.734-6.6s4.124-2.734 6.6-2.734zM16.457 5.333c-1.768 0-3.464 0.702-4.714 1.953s-1.953 2.946-1.953 4.714c0 1.333 0 4 6.667 12.947 6.667-8.947 6.667-11.613 6.667-12.947 0-1.768-0.702-3.464-1.953-4.714s-2.946-1.953-4.714-1.953z"></path>
        </symbol>
        <symbol id="icon-phone" viewBox="0 0 33 32">
            <path d="M27.411 18.63l-5.656-2.536c-0.366-0.158-0.766-0.221-1.163-0.185s-0.779 0.172-1.11 0.394c-0.046 0.031-0.091 0.065-0.134 0.1l-2.67 2.274c-1.556-0.844-3.163-2.438-4.007-3.974l2.281-2.711c0.037-0.044 0.071-0.090 0.102-0.138 0.216-0.33 0.348-0.708 0.382-1.102s-0.028-0.789-0.184-1.152c-0.004-0.007-0.007-0.014-0.010-0.022l-2.525-5.644c-0.207-0.472-0.561-0.865-1.009-1.12s-0.966-0.36-1.478-0.298c-1.737 0.228-3.332 1.081-4.486 2.399s-1.789 3.011-1.787 4.763c0 9.766 7.944 17.71 17.71 17.71 1.752 0.003 3.445-0.632 4.763-1.787s2.171-2.749 2.399-4.486c0.062-0.512-0.042-1.030-0.298-1.478s-0.648-0.802-1.12-1.009zM21.667 24.518c-3.934-0.005-7.705-1.57-10.487-4.351s-4.346-6.553-4.351-10.487c-0.003-0.991 0.334-1.954 0.954-2.728s1.486-1.312 2.454-1.525l2.252 5.026-2.293 2.731c-0.037 0.044-0.072 0.091-0.103 0.139-0.226 0.345-0.359 0.743-0.386 1.155s0.053 0.823 0.232 1.195c1.127 2.307 3.45 4.614 5.781 5.744 0.374 0.177 0.788 0.255 1.201 0.224s0.811-0.168 1.155-0.398c0.046-0.031 0.091-0.065 0.133-0.102l2.684-2.282 5.026 2.251c-0.213 0.968-0.752 1.834-1.525 2.454s-1.736 0.957-2.727 0.954z"></path>
        </symbol>
        <symbol id="icon-scissors" viewBox="0 0 31 32">
            <path stroke-linejoin="miter" stroke-linecap="round" stroke-miterlimit="4" stroke-width="2.3684" d="M21.309 27.917l-14.629-26.020M29.184 25.808c0 1.119-0.445 2.192-1.236 2.984s-1.864 1.236-2.984 1.236-2.192-0.445-2.984-1.236c-0.791-0.791-1.236-1.864-1.236-2.984s0.445-2.192 1.236-2.984c0.791-0.791 1.864-1.236 2.984-1.236s2.192 0.445 2.984 1.236c0.791 0.791 1.236 1.864 1.236 2.984z"></path>
            <path d="M5.274 28.972c0.28 0 0.548 0.111 0.746 0.309s0.309 0.466 0.309 0.746c0 0.28-0.111 0.548-0.309 0.746s-0.466 0.309-0.746 0.309v-2.11zM10.549 25.808v1.055h-2.11v-1.055h2.11zM9.848 28.435c-0.138 0.242-0.366 0.42-0.635 0.494s-0.556 0.039-0.799-0.097-0.422-0.364-0.498-0.633c-0.076-0.268-0.042-0.556 0.094-0.799l1.838 1.035zM22.638 1.38c0.137-0.244 0.366-0.423 0.635-0.499 0.133-0.037 0.273-0.048 0.411-0.031s0.271 0.060 0.391 0.128c0.121 0.068 0.227 0.159 0.313 0.268s0.149 0.234 0.186 0.367 0.048 0.273 0.032 0.411c-0.017 0.138-0.060 0.271-0.128 0.391l-1.84-1.035zM2.11 25.808c0 0.839 0.333 1.644 0.927 2.238s1.398 0.927 2.238 0.927v2.11c-1.399 0-2.74-0.556-3.729-1.545s-1.545-2.331-1.545-3.73h2.11zM8.439 25.808c0-0.839-0.333-1.644-0.927-2.238s-1.398-0.927-2.238-0.927v-2.11c0.693 0 1.378 0.136 2.018 0.402s1.221 0.654 1.711 1.143c0.49 0.49 0.878 1.071 1.143 1.711s0.402 1.326 0.402 2.018h-2.11zM5.274 22.643c-0.839 0-1.644 0.333-2.238 0.927s-0.927 1.398-0.927 2.238h-2.11c0-1.399 0.556-2.74 1.545-3.729s2.331-1.545 3.729-1.545v2.11zM8.010 27.4l14.629-26.020 1.84 1.035-14.63 26.020-1.838-1.035z"></path>
        </symbol>
        <symbol id="icon-star" viewBox="0 0 32 32">
            <path stroke-linejoin="round" stroke-linecap="round" stroke-miterlimit="4" stroke-width="2.2857" d="M16.966 4.164l3.051 6.24c0.069 0.158 0.179 0.296 0.317 0.398s0.3 0.166 0.47 0.185l6.736 1.011c0.195 0.025 0.379 0.106 0.53 0.234s0.264 0.296 0.324 0.485c0.060 0.19 0.066 0.393 0.017 0.585s-0.152 0.367-0.295 0.504l-4.855 4.879c-0.124 0.117-0.217 0.264-0.271 0.427s-0.066 0.337-0.036 0.506l1.171 6.862c0.034 0.197 0.012 0.4-0.062 0.586s-0.198 0.346-0.358 0.463c-0.16 0.117-0.349 0.187-0.546 0.201s-0.394-0.029-0.569-0.123l-6.064-3.246c-0.155-0.077-0.326-0.117-0.499-0.117s-0.344 0.040-0.499 0.117l-6.064 3.246c-0.174 0.094-0.371 0.136-0.569 0.123s-0.386-0.084-0.546-0.201c-0.16-0.117-0.284-0.278-0.358-0.463s-0.096-0.388-0.062-0.586l1.171-6.94c0.030-0.169 0.017-0.343-0.036-0.506s-0.147-0.31-0.271-0.427l-4.913-4.802c-0.145-0.14-0.248-0.319-0.294-0.517s-0.036-0.404 0.031-0.596c0.067-0.191 0.187-0.359 0.346-0.482s0.35-0.197 0.55-0.213l6.736-1.011c0.17-0.019 0.332-0.083 0.47-0.185s0.247-0.239 0.317-0.398l3.051-6.24c0.083-0.182 0.216-0.336 0.382-0.443s0.36-0.165 0.558-0.165c0.198 0 0.391 0.057 0.558 0.165s0.299 0.262 0.382 0.443z"></path>
        </symbol>
        <symbol id="icon-services" viewBox="0 0 32 32">
            <path stroke-linejoin="round" stroke-linecap="round" stroke-miterlimit="4" stroke-width="2.2857" d="M11.432 9.901v-4.923M16.356 9.901v-4.923M21.279 9.901v-4.923"></path>
            <path stroke-linejoin="round" stroke-linecap="round" stroke-miterlimit="4" stroke-width="2.2857" d="M25.381 7.439h-18.051c-0.906 0-1.641 0.735-1.641 1.641v15.59c0 0.906 0.735 1.641 1.641 1.641h18.051c0.906 0 1.641-0.735 1.641-1.641v-15.59c0-0.906-0.735-1.641-1.641-1.641z"></path>
            <path stroke-linejoin="round" stroke-linecap="round" stroke-miterlimit="4" stroke-width="2.2857" d="M10.612 15.644h11.487M10.612 20.568h6.564"></path>
        </symbol>
        <symbol id="icon-price" viewBox="0 0 32 32">
            <path d="M25.387 9.719v-2.37c0-1.307-1.052-2.37-2.347-2.37h-15.253c-1.941 0-3.52 1.595-3.52 3.556v14.222c0 2.609 2.105 3.556 3.52 3.556h17.6c1.294 0 2.347-1.063 2.347-2.37v-11.852c0-1.307-1.052-2.37-2.347-2.37zM7.787 7.348h15.253v2.37h-15.253c-0.302-0.014-0.587-0.145-0.796-0.365s-0.326-0.514-0.326-0.82 0.117-0.599 0.326-0.82c0.209-0.221 0.494-0.352 0.796-0.365zM25.387 23.941h-17.586c-0.542-0.014-1.187-0.231-1.187-1.185v-10.886c0.368 0.134 0.759 0.219 1.173 0.219h17.6v11.852z"></path>
            <path d="M20.622 15.644h2.667v5.333h-2.667v-5.333z"></path>
        </symbol>
        <symbol id="icon-arrow-left" viewBox="0 0 32 32">
            <path d="M1 16l15 15v-9h16v-12h-16v-9z"></path>
        </symbol>
        <symbol id="icon-arrow-right" viewBox="0 0 32 32">
            <path d="M31 16l-15-15v9h-16v12h16v9z"></path>
        </symbol>
        <symbol id="icon-phone" viewBox="0 0 32 32">
            <path d="M25.039 18.594l-5.195-2.329c-0.336-0.145-0.704-0.203-1.069-0.17s-0.715 0.158-1.020 0.362c-0.043 0.029-0.084 0.059-0.123 0.092l-2.452 2.088c-1.429-0.775-2.904-2.238-3.68-3.65l2.095-2.49c0.034-0.040 0.065-0.082 0.093-0.126 0.199-0.303 0.319-0.651 0.351-1.012s-0.026-0.724-0.169-1.058c-0.003-0.006-0.006-0.013-0.009-0.020l-2.319-5.184c-0.19-0.433-0.515-0.794-0.926-1.029s-0.887-0.33-1.357-0.273c-1.595 0.21-3.060 0.993-4.12 2.203s-1.643 2.765-1.641 4.374c0 8.968 7.296 16.264 16.264 16.264 1.609 0.002 3.164-0.581 4.374-1.641s1.993-2.524 2.203-4.12c0.057-0.47-0.039-0.946-0.273-1.357s-0.595-0.736-1.029-0.926zM19.764 24c-3.613-0.004-7.076-1.441-9.631-3.996s-3.992-6.018-3.996-9.631c-0.003-0.91 0.307-1.794 0.876-2.505s1.365-1.205 2.254-1.401l2.068 4.615-2.106 2.508c-0.034 0.041-0.066 0.083-0.095 0.127-0.208 0.317-0.33 0.682-0.354 1.061s0.049 0.756 0.214 1.098c1.035 2.119 3.168 4.237 5.309 5.275 0.344 0.163 0.724 0.234 1.103 0.206s0.745-0.154 1.061-0.365c0.043-0.029 0.083-0.060 0.122-0.093l2.465-2.096 4.615 2.067c-0.196 0.889-0.69 1.684-1.401 2.254s-1.594 0.878-2.505 0.876z"></path>
        </symbol>
        <symbol id="icon-address" viewBox="0 0 32 32">
            <path d="M16 8.667c0.884 0 1.732 0.351 2.357 0.976s0.976 1.473 0.976 2.357c0 0.438-0.086 0.871-0.254 1.276s-0.413 0.772-0.723 1.081c-0.309 0.309-0.677 0.555-1.081 0.723s-0.838 0.254-1.276 0.254c-0.884 0-1.732-0.351-2.357-0.976s-0.976-1.473-0.976-2.357 0.351-1.732 0.976-2.357c0.625-0.625 1.473-0.976 2.357-0.976zM16 2.667c2.475 0 4.849 0.983 6.6 2.734s2.734 4.124 2.734 6.6c0 7-9.333 17.333-9.333 17.333s-9.333-10.333-9.333-17.333c0-2.475 0.983-4.849 2.734-6.6s4.124-2.734 6.6-2.734zM16 5.333c-1.768 0-3.464 0.702-4.714 1.953s-1.953 2.946-1.953 4.714c0 1.333 0 4 6.667 12.947 6.667-8.947 6.667-11.613 6.667-12.947 0-1.768-0.702-3.464-1.953-4.714s-2.946-1.953-4.714-1.953z"></path>
        </symbol>
        <symbol id="icon-facebook" viewBox="0 0 27 32">
            <path stroke-linejoin="round" stroke-linecap="round" stroke-miterlimit="4" stroke-width="2.6667" d="M25.333 1.333h-6.545c-2.893 0-5.668 0.773-7.714 2.148s-3.195 3.241-3.195 5.185v4.4h-6.545v5.867h6.545v11.733h8.727v-11.733h6.545l2.182-5.867h-8.727v-4.4c0-0.389 0.23-0.762 0.639-1.037s0.964-0.43 1.543-0.43h6.545v-5.867z"></path>
        </symbol>
        <symbol id="icon-telegram" viewBox="0 0 33 32">
            <path stroke-linejoin="round" stroke-linecap="round" stroke-miterlimit="4" stroke-width="2.56" d="M30.080 2.56l-9.408 26.88-5.376-12.096-12.096-5.376 26.88-9.408z"></path>
            <path stroke-linejoin="round" stroke-linecap="round" stroke-miterlimit="4" stroke-width="2.56" d="M30.507 2.667l-15.253 14.667"></path>
        </symbol>
        <symbol id="icon-instagram" viewBox="0 0 32 32">
            <path d="M24.544 5.536c-0.38 0-0.751 0.113-1.067 0.324s-0.562 0.511-0.707 0.862c-0.145 0.351-0.183 0.737-0.109 1.109s0.257 0.715 0.525 0.983c0.269 0.269 0.611 0.451 0.983 0.525s0.759 0.036 1.11-0.109c0.351-0.145 0.651-0.391 0.861-0.707s0.324-0.687 0.324-1.067c0-0.509-0.202-0.998-0.562-1.358s-0.848-0.562-1.358-0.562zM31.904 9.408c-0.031-1.328-0.28-2.641-0.736-3.888-0.407-1.067-1.040-2.033-1.856-2.832-0.792-0.82-1.761-1.449-2.832-1.84-1.244-0.47-2.559-0.724-3.888-0.752-1.696-0.096-2.24-0.096-6.592-0.096s-4.896 0-6.592 0.096c-1.329 0.028-2.644 0.282-3.888 0.752-1.069 0.395-2.037 1.023-2.832 1.84-0.82 0.792-1.449 1.761-1.84 2.832-0.47 1.244-0.724 2.559-0.752 3.888-0.096 1.696-0.096 2.24-0.096 6.592s0 4.896 0.096 6.592c0.028 1.329 0.282 2.644 0.752 3.888 0.391 1.071 1.020 2.040 1.84 2.832 0.795 0.817 1.763 1.445 2.832 1.84 1.244 0.47 2.559 0.725 3.888 0.752 1.696 0.096 2.24 0.096 6.592 0.096s4.896 0 6.592-0.096c1.329-0.027 2.644-0.282 3.888-0.752 1.071-0.391 2.040-1.020 2.832-1.84 0.82-0.796 1.453-1.763 1.856-2.832 0.456-1.247 0.705-2.56 0.736-3.888 0-1.696 0.096-2.24 0.096-6.592s0-4.896-0.096-6.592zM29.024 22.4c-0.012 1.016-0.196 2.022-0.544 2.976-0.256 0.696-0.666 1.325-1.2 1.84-0.519 0.529-1.147 0.938-1.84 1.2-0.954 0.348-1.96 0.532-2.976 0.544-1.6 0.080-2.192 0.096-6.4 0.096s-4.8 0-6.4-0.096c-1.055 0.020-2.105-0.143-3.104-0.48-0.663-0.275-1.262-0.683-1.76-1.2-0.531-0.514-0.936-1.144-1.184-1.84-0.391-0.968-0.607-1.997-0.64-3.040 0-1.6-0.096-2.192-0.096-6.4s0-4.8 0.096-6.4c0.007-1.038 0.197-2.067 0.56-3.040 0.282-0.675 0.714-1.277 1.264-1.76 0.486-0.55 1.087-0.987 1.76-1.28 0.975-0.352 2.003-0.536 3.040-0.544 1.6 0 2.192-0.096 6.4-0.096s4.8 0 6.4 0.096c1.016 0.012 2.022 0.196 2.976 0.544 0.727 0.27 1.38 0.709 1.904 1.28 0.524 0.491 0.934 1.092 1.2 1.76 0.356 0.974 0.54 2.003 0.544 3.040 0.080 1.6 0.096 2.192 0.096 6.4s-0.016 4.8-0.096 6.4zM16 7.792c-1.623 0.003-3.208 0.487-4.556 1.391s-2.397 2.187-3.016 3.687c-0.619 1.5-0.779 3.15-0.461 4.741s1.102 3.052 2.25 4.198c1.149 1.146 2.611 1.926 4.203 2.242s3.241 0.152 4.74-0.47c1.499-0.622 2.78-1.674 3.681-3.023s1.382-2.936 1.382-4.558c0.002-1.080-0.209-2.149-0.622-3.147s-1.019-1.904-1.783-2.667-1.672-1.367-2.671-1.778c-0.999-0.411-2.069-0.62-3.148-0.616zM16 21.328c-1.054 0-2.084-0.312-2.96-0.898s-1.559-1.418-1.962-2.391c-0.403-0.974-0.509-2.045-0.303-3.078s0.713-1.983 1.458-2.728c0.745-0.745 1.694-1.253 2.728-1.458s2.105-0.1 3.078 0.303c0.974 0.403 1.806 1.086 2.391 1.962s0.898 1.906 0.898 2.96c0 0.7-0.138 1.392-0.406 2.039s-0.66 1.234-1.155 1.729-1.082 0.887-1.729 1.155c-0.646 0.268-1.339 0.406-2.039 0.406z"></path>
        </symbol>
        <symbol id="icon-arrow-up" viewBox="0 0 32 32">
            <path d="M16 32c8.837 0 16-7.163 16-16s-7.163-16-16-16v0c-8.837 0-16 7.163-16 16s7.163 16 16 16v0zM24.063 13.438c0.587 0.588 0.587 1.537 0 2.119s-1.538 0.588-2.119 0l-4.438-4.438-0.006 13.381c0 0.831-0.669 1.5-1.5 1.5s-1.5-0.669-1.5-1.5v-13.381l-4.438 4.438c-0.588 0.588-1.537 0.588-2.119 0s-0.588-1.537 0-2.119l6.994-7c0.588-0.588 1.538-0.588 2.119 0l7.006 7z"></path>
        </symbol>
        <symbol id="icon-burger-close" viewBox="0 0 32 32">
            <path stroke-linejoin="round" stroke-linecap="round" stroke-miterlimit="4" stroke-width="1.7333" d="M24 8l-16 16"></path>
            <path stroke-linejoin="round" stroke-linecap="round" stroke-miterlimit="4" stroke-width="1.7333" d="M8 8l16 16"></path>
        </symbol>
    </defs>
</svg>
