<svg aria-hidden="true" style="position: absolute; width: 0; height: 0; overflow: hidden;" version="1.1" xmlns="http://www.w3.org/2000/svg" xmlns:xlink="http://www.w3.org/1999/xlink">
    <defs>
        <symbol id="icon-logo" viewBox="0 0 33 32">
            <path d="M0 0h33.477v32h-33.477v-32z"></path>
        </symbol>
        <symbol id="icon-menu-open" viewBox="0 0 32 32">
            <path d="M0 7.5c0-0.398 0.158-0.779 0.439-1.061s0.663-0.439 1.061-0.439h29c0.398 0 0.779 0.158 1.061 0.439s0.439 0.663 0.439 1.061-0.158 0.779-0.439 1.061c-0.281 0.281-0.663 0.439-1.061 0.439h-29c-0.398 0-0.779-0.158-1.061-0.439s-0.439-0.663-0.439-1.061zM0 16c0-0.398 0.158-0.779 0.439-1.061s0.663-0.439 1.061-0.439h29c0.398 0 0.779 0.158 1.061 0.439s0.439 0.663 0.439 1.061-0.158 0.779-0.439 1.061c-0.281 0.281-0.663 0.439-1.061 0.439h-29c-0.398 0-0.779-0.158-1.061-0.439s-0.439-0.663-0.439-1.061zM1.5 23c-0.398 0-0.779 0.158-1.061 0.439s-0.439 0.663-0.439 1.061 0.158 0.779 0.439 1.061c0.281 0.281 0.663 0.439 1.061 0.439h29c0.398 0 0.779-0.158 1.061-0.439s0.439-0.663 0.439-1.061-0.158-0.779-0.439-1.061c-0.281-0.281-0.663-0.439-1.061-0.439h-29z"></path>
        </symbol>
        <symbol id="icon-clock" viewBox="0 0 33 32">
            <path d="M16.457 26.667c2.829 0 5.542-1.124 7.543-3.124s3.124-4.713 3.124-7.542-1.124-5.542-3.124-7.543c-2-2-4.713-3.124-7.543-3.124s-5.542 1.124-7.543 3.124c-2 2-3.124 4.714-3.124 7.543s1.124 5.542 3.124 7.542c2 2 4.713 3.124 7.543 3.124zM16.457 2.667c1.751 0 3.485 0.345 5.102 1.015s3.088 1.652 4.326 2.89c1.238 1.238 2.22 2.708 2.89 4.326s1.015 3.351 1.015 5.102c0 3.536-1.405 6.928-3.905 9.428s-5.892 3.905-9.428 3.905c-7.373 0-13.333-6-13.333-13.333 0-3.536 1.405-6.928 3.905-9.428s5.892-3.905 9.428-3.905zM17.124 9.333v7l6 3.56-1 1.64-7-4.2v-8h2z"></path>
        </symbol>
        <symbol id="icon-adres" viewBox="0 0 33 32">
            <path d="M16.457 8.667c0.884 0 1.732 0.351 2.357 0.976s0.976 1.473 0.976 2.357c0 0.438-0.086 0.871-0.254 1.276s-0.413 0.772-0.723 1.081c-0.31 0.309-0.677 0.555-1.081 0.723s-0.838 0.254-1.276 0.254c-0.884 0-1.732-0.351-2.357-0.976s-0.976-1.473-0.976-2.357c0-0.884 0.351-1.732 0.976-2.357s1.473-0.976 2.357-0.976zM16.457 2.667c2.475 0 4.849 0.983 6.6 2.734s2.734 4.124 2.734 6.6c0 7-9.333 17.333-9.333 17.333s-9.333-10.333-9.333-17.333c0-2.475 0.983-4.849 2.734-6.6s4.124-2.734 6.6-2.734zM16.457 5.333c-1.768 0-3.464 0.702-4.714 1.953s-1.953 2.946-1.953 4.714c0 1.333 0 4 6.667 12.947 6.667-8.947 6.667-11.613 6.667-12.947 0-1.768-0.702-3.464-1.953-4.714s-2.946-1.953-4.714-1.953z"></path>
        </symbol>
        <symbol id="icon-phone" viewBox="0 0 33 32">
            <path d="M27.411 18.63l-5.656-2.536c-0.366-0.158-0.766-0.221-1.163-0.185s-0.779 0.172-1.11 0.394c-0.046 0.031-0.091 0.065-0.134 0.1l-2.67 2.274c-1.556-0.844-3.163-2.438-4.007-3.974l2.281-2.711c0.037-0.044 0.071-0.090 0.102-0.138 0.216-0.33 0.348-0.708 0.382-1.102s-0.028-0.789-0.184-1.152c-0.004-0.007-0.007-0.014-0.010-0.022l-2.525-5.644c-0.207-0.472-0.561-0.865-1.009-1.12s-0.966-0.36-1.478-0.298c-1.737 0.228-3.332 1.081-4.486 2.399s-1.789 3.011-1.787 4.763c0 9.766 7.944 17.71 17.71 17.71 1.752 0.003 3.445-0.632 4.763-1.787s2.171-2.749 2.399-4.486c0.062-0.512-0.042-1.030-0.298-1.478s-0.648-0.802-1.12-1.009zM21.667 24.518c-3.934-0.005-7.705-1.57-10.487-4.351s-4.346-6.553-4.351-10.487c-0.003-0.991 0.334-1.954 0.954-2.728s1.486-1.312 2.454-1.525l2.252 5.026-2.293 2.731c-0.037 0.044-0.072 0.091-0.103 0.139-0.226 0.345-0.359 0.743-0.386 1.155s0.053 0.823 0.232 1.195c1.127 2.307 3.45 4.614 5.781 5.744 0.374 0.177 0.788 0.255 1.201 0.224s0.811-0.168 1.155-0.398c0.046-0.031 0.091-0.065 0.133-0.102l2.684-2.282 5.026 2.251c-0.213 0.968-0.752 1.834-1.525 2.454s-1.736 0.957-2.727 0.954z"></path>
        </symbol>
        <symbol id="icon-scissors" viewBox="0 0 31 32">
            <path stroke-linejoin="miter" stroke-linecap="round" stroke-miterlimit="4" stroke-width="2.3684" d="M21.309 27.917l-14.629-26.020M29.184 25.808c0 1.119-0.445 2.192-1.236 2.984s-1.864 1.236-2.984 1.236-2.192-0.445-2.984-1.236c-0.791-0.791-1.236-1.864-1.236-2.984s0.445-2.192 1.236-2.984c0.791-0.791 1.864-1.236 2.984-1.236s2.192 0.445 2.984 1.236c0.791 0.791 1.236 1.864 1.236 2.984z"></path>
            <path d="M5.274 28.972c0.28 0 0.548 0.111 0.746 0.309s0.309 0.466 0.309 0.746c0 0.28-0.111 0.548-0.309 0.746s-0.466 0.309-0.746 0.309v-2.11zM10.549 25.808v1.055h-2.11v-1.055h2.11zM9.848 28.435c-0.138 0.242-0.366 0.42-0.635 0.494s-0.556 0.039-0.799-0.097-0.422-0.364-0.498-0.633c-0.076-0.268-0.042-0.556 0.094-0.799l1.838 1.035zM22.638 1.38c0.137-0.244 0.366-0.423 0.635-0.499 0.133-0.037 0.273-0.048 0.411-0.031s0.271 0.060 0.391 0.128c0.121 0.068 0.227 0.159 0.313 0.268s0.149 0.234 0.186 0.367 0.048 0.273 0.032 0.411c-0.017 0.138-0.060 0.271-0.128 0.391l-1.84-1.035zM2.11 25.808c0 0.839 0.333 1.644 0.927 2.238s1.398 0.927 2.238 0.927v2.11c-1.399 0-2.74-0.556-3.729-1.545s-1.545-2.331-1.545-3.73h2.11zM8.439 25.808c0-0.839-0.333-1.644-0.927-2.238s-1.398-0.927-2.238-0.927v-2.11c0.693 0 1.378 0.136 2.018 0.402s1.221 0.654 1.711 1.143c0.49 0.49 0.878 1.071 1.143 1.711s0.402 1.326 0.402 2.018h-2.11zM5.274 22.643c-0.839 0-1.644 0.333-2.238 0.927s-0.927 1.398-0.927 2.238h-2.11c0-1.399 0.556-2.74 1.545-3.729s2.331-1.545 3.729-1.545v2.11zM8.010 27.4l14.629-26.020 1.84 1.035-14.63 26.020-1.838-1.035z"></path>
        </symbol>
        <symbol id="icon-star" viewBox="0 0 32 32">
            <path stroke-linejoin="round" stroke-linecap="round" stroke-miterlimit="4" stroke-width="2.2857" d="M16.966 4.164l3.051 6.24c0.069 0.158 0.179 0.296 0.317 0.398s0.3 0.166 0.47 0.185l6.736 1.011c0.195 0.025 0.379 0.106 0.53 0.234s0.264 0.296 0.324 0.485c0.060 0.19 0.066 0.393 0.017 0.585s-0.152 0.367-0.295 0.504l-4.855 4.879c-0.124 0.117-0.217 0.264-0.271 0.427s-0.066 0.337-0.036 0.506l1.171 6.862c0.034 0.197 0.012 0.4-0.062 0.586s-0.198 0.346-0.358 0.463c-0.16 0.117-0.349 0.187-0.546 0.201s-0.394-0.029-0.569-0.123l-6.064-3.246c-0.155-0.077-0.326-0.117-0.499-0.117s-0.344 0.040-0.499 0.117l-6.064 3.246c-0.174 0.094-0.371 0.136-0.569 0.123s-0.386-0.084-0.546-0.201c-0.16-0.117-0.284-0.278-0.358-0.463s-0.096-0.388-0.062-0.586l1.171-6.94c0.030-0.169 0.017-0.343-0.036-0.506s-0.147-0.31-0.271-0.427l-4.913-4.802c-0.145-0.14-0.248-0.319-0.294-0.517s-0.036-0.404 0.031-0.596c0.067-0.191 0.187-0.359 0.346-0.482s0.35-0.197 0.55-0.213l6.736-1.011c0.17-0.019 0.332-0.083 0.47-0.185s0.247-0.239 0.317-0.398l3.051-6.24c0.083-0.182 0.216-0.336 0.382-0.443s0.36-0.165 0.558-0.165c0.198 0 0.391 0.057 0.558 0.165s0.299 0.262 0.382 0.443z"></path>
        </symbol>
        <symbol id="icon-services" viewBox="0 0 32 32">
            <path stroke-linejoin="round" stroke-linecap="round" stroke-miterlimit="4" stroke-width="2.2857" d="M11.432 9.901v-4.923M16.356 9.901v-4.923M21.279 9.901v-4.923"></path>
            <path stroke-linejoin="round" stroke-linecap="round" stroke-miterlimit="4" stroke-width="2.2857" d="M25.381 7.439h-18.051c-0.906 0-1.641 0.735-1.641 1.641v15.59c0 0.906 0.735 1.641 1.641 1.641h18.051c0.906 0 1.641-0.735 1.641-1.641v-15.59c0-0.906-0.735-1.641-1.641-1.641z"></path>
            <path stroke-linejoin="round" stroke-linecap="round" stroke-miterlimit="4" stroke-width="2.2857" d="M10.612 15.644h11.487M10.612 20.568h6.564"></path>
        </symbol>
        <symbol id="icon-price" viewBox="0 0 32 32">
            <path d="M25.387 9.719v-2.37c0-1.307-1.052-2.37-2.347-2.37h-15.253c-1.941 0-3.52 1.595-3.52 3.556v14.222c0 2.609 2.105 3.556 3.52 3.556h17.6c1.294 0 2.347-1.063 2.347-2.37v-11.852c0-1.307-1.052-2.37-2.347-2.37zM7.787 7.348h15.253v2.37h-15.253c-0.302-0.014-0.587-0.145-0.796-0.365s-0.326-0.514-0.326-0.82 0.117-0.599 0.326-0.82c0.209-0.221 0.494-0.352 0.796-0.365zM25.387 23.941h-17.586c-0.542-0.014-1.187-0.231-1.187-1.185v-10.886c0.368 0.134 0.759 0.219 1.173 0.219h17.6v11.852z"></path>
            <path d="M20.622 15.644h2.667v5.333h-2.667v-5.333z"></path>
        </symbol>
    </defs>
</svg>
