<svg width="28" height="28" viewBox="0 0 28 28" fill="none" xmlns="http://www.w3.org/2000/svg">
<path d="M20.2299 6.37004C19.953 6.37004 19.6824 6.45215 19.4521 6.60598C19.2219 6.75982 19.0424 6.97847 18.9365 7.23428C18.8305 7.4901 18.8028 7.77159 18.8568 8.04317C18.9108 8.31474 19.0442 8.5642 19.24 8.75999C19.4358 8.95578 19.6852 9.08912 19.9568 9.14314C20.2284 9.19716 20.5099 9.16944 20.7657 9.06347C21.0215 8.95751 21.2401 8.77807 21.394 8.54784C21.5478 8.31761 21.6299 8.04693 21.6299 7.77004C21.6299 7.39874 21.4824 7.04264 21.2199 6.78009C20.9573 6.51754 20.6012 6.37004 20.2299 6.37004ZM25.5966 9.19337C25.5739 8.22539 25.3926 7.26768 25.0599 6.35837C24.7633 5.58036 24.3016 4.87587 23.7066 4.29337C23.1289 3.69537 22.4227 3.23658 21.6416 2.95171C20.7347 2.60889 19.7759 2.42345 18.8066 2.40337C17.5699 2.33337 17.1733 2.33337 13.9999 2.33337C10.8266 2.33337 10.4299 2.33337 9.19325 2.40337C8.22393 2.42345 7.26515 2.60889 6.35825 2.95171C5.57854 3.23946 4.87301 3.69786 4.29325 4.29337C3.69525 4.87108 3.23646 5.57722 2.95159 6.35837C2.60877 7.26527 2.42333 8.22405 2.40325 9.19337C2.33325 10.43 2.33325 10.8267 2.33325 14C2.33325 17.1734 2.33325 17.57 2.40325 18.8067C2.42333 19.776 2.60877 20.7348 2.95159 21.6417C3.23646 22.4229 3.69525 23.129 4.29325 23.7067C4.87301 24.3022 5.57854 24.7606 6.35825 25.0484C7.26515 25.3912 8.22393 25.5766 9.19325 25.5967C10.4299 25.6667 10.8266 25.6667 13.9999 25.6667C17.1733 25.6667 17.5699 25.6667 18.8066 25.5967C19.7759 25.5766 20.7347 25.3912 21.6416 25.0484C22.4227 24.7635 23.1289 24.3047 23.7066 23.7067C24.3042 23.1264 24.7663 22.4213 25.0599 21.6417C25.3926 20.7324 25.5739 19.7747 25.5966 18.8067C25.5966 17.57 25.6666 17.1734 25.6666 14C25.6666 10.8267 25.6666 10.43 25.5966 9.19337ZM23.4966 18.6667C23.4881 19.4073 23.354 20.141 23.0999 20.8367C22.9136 21.3444 22.6144 21.8032 22.2249 22.1784C21.8465 22.564 21.3887 22.8625 20.8833 23.0534C20.1876 23.3074 19.4538 23.4415 18.7133 23.45C17.5466 23.5084 17.1149 23.52 14.0466 23.52C10.9783 23.52 10.5466 23.52 9.37992 23.45C8.61096 23.4644 7.84528 23.346 7.11659 23.1C6.63333 22.8995 6.1965 22.6016 5.83325 22.225C5.44602 21.8502 5.15057 21.3911 4.96992 20.8834C4.68508 20.1777 4.5271 19.4273 4.50325 18.6667C4.50325 17.5 4.43325 17.0684 4.43325 14C4.43325 10.9317 4.43325 10.5 4.50325 9.33337C4.50848 8.57627 4.64669 7.82598 4.91159 7.11671C5.11697 6.62427 5.43223 6.18531 5.83325 5.83337C6.1877 5.43224 6.62575 5.11365 7.11659 4.90004C7.82773 4.64342 8.57725 4.5093 9.33325 4.50337C10.4999 4.50337 10.9316 4.43337 13.9999 4.43337C17.0683 4.43337 17.4999 4.43337 18.6666 4.50337C19.4072 4.51187 20.1409 4.64599 20.8366 4.90004C21.3668 5.0968 21.8426 5.4167 22.2249 5.83337C22.6072 6.19175 22.906 6.6299 23.0999 7.11671C23.3592 7.82713 23.4934 8.57712 23.4966 9.33337C23.5549 10.5 23.5666 10.9317 23.5666 14C23.5666 17.0684 23.5549 17.5 23.4966 18.6667ZM13.9999 8.01504C12.8167 8.01735 11.6607 8.37032 10.678 9.02936C9.69532 9.6884 8.93003 10.6239 8.47883 11.7178C8.02762 12.8116 7.91076 14.0146 8.14301 15.1748C8.37526 16.335 8.94619 17.4003 9.78367 18.2362C10.6212 19.072 11.6876 19.6409 12.8483 19.8709C14.0089 20.1009 15.2117 19.9817 16.3046 19.5283C17.3976 19.075 18.3316 18.3079 18.9887 17.3239C19.6459 16.3399 19.9966 15.1833 19.9966 14C19.9981 13.2127 19.844 12.4327 19.543 11.7052C19.2421 10.9776 18.8002 10.3167 18.2429 9.76043C17.6856 9.20422 17.0239 8.76367 16.2957 8.46413C15.5675 8.16458 14.7873 8.01196 13.9999 8.01504ZM13.9999 17.885C13.2315 17.885 12.4804 17.6572 11.8415 17.2303C11.2026 16.8034 10.7047 16.1967 10.4106 15.4868C10.1166 14.7769 10.0397 13.9957 10.1896 13.2421C10.3395 12.4885 10.7095 11.7963 11.2528 11.2529C11.7961 10.7096 12.4884 10.3396 13.242 10.1897C13.9956 10.0398 14.7768 10.1167 15.4866 10.4108C16.1965 10.7048 16.8033 11.2028 17.2302 11.8417C17.6571 12.4805 17.8849 13.2317 17.8849 14C17.8849 14.5102 17.7844 15.0154 17.5892 15.4868C17.394 15.9581 17.1078 16.3864 16.747 16.7472C16.3863 17.1079 15.958 17.3941 15.4866 17.5893C15.0153 17.7846 14.5101 17.885 13.9999 17.885Z" fill="#F3FBFF"/>
</svg>
