<svg width="36" height="35" viewBox="0 0 36 35" fill="none" xmlns="http://www.w3.org/2000/svg">
<path d="M29.9804 20.3769L23.8173 17.614L23.7937 17.6035C23.3931 17.4308 22.9556 17.3613 22.5212 17.4013C22.0868 17.4413 21.6694 17.5896 21.307 17.8326C21.2562 17.8666 21.2073 17.9033 21.1605 17.9425L18.2405 20.4292C16.5391 19.5065 14.7814 17.7632 13.8574 16.0827L16.352 13.117C16.3921 13.0692 16.4292 13.0189 16.4632 12.9665C16.6998 12.6055 16.8435 12.1916 16.8814 11.7616C16.9193 11.3316 16.8503 10.8989 16.6805 10.5021C16.6764 10.4945 16.6729 10.4866 16.67 10.4785L13.9085 4.30496C13.6818 3.78867 13.2949 3.35908 12.8051 3.07976C12.3153 2.80044 11.7486 2.68623 11.1888 2.75404C9.28892 3.00362 7.54486 3.93624 6.28233 5.37771C5.01981 6.81918 4.32517 8.67094 4.32813 10.5871C4.32813 21.2682 13.0172 29.9572 23.6982 29.9572C25.6144 29.9602 27.4661 29.2655 28.9076 28.003C30.3491 26.7405 31.2817 24.9964 31.5313 23.0965C31.5991 22.5368 31.4849 21.97 31.2056 21.4802C30.9263 20.9904 30.4967 20.6035 29.9804 20.3769ZM23.6982 26.8161C19.3956 26.8109 15.2707 25.0994 12.2283 22.057C9.18592 19.0146 7.47442 14.8897 7.46923 10.5871C7.46623 9.5028 7.83435 8.45008 8.51243 7.60391C9.19051 6.75774 10.1377 6.16906 11.1967 5.93571L13.6598 11.4326L11.1522 14.4193C11.1116 14.4676 11.074 14.5183 11.0396 14.5711C10.7924 14.9487 10.6471 15.3839 10.6178 15.8343C10.5884 16.2847 10.676 16.735 10.8721 17.1415C12.105 19.6649 14.6453 22.1882 17.1948 23.4237C17.6041 23.6177 18.0567 23.7023 18.5084 23.669C18.9601 23.6357 19.3954 23.4858 19.7718 23.234C19.8224 23.1998 19.871 23.1627 19.9171 23.1227L22.8527 20.6268L28.3496 23.0887C28.1163 24.1476 27.5276 25.0948 26.6814 25.7729C25.8353 26.451 24.7825 26.8191 23.6982 26.8161Z" fill="#CDAE5D"/>
</svg>
