<svg width="25" height="25" viewBox="0 0 25 25" fill="none" xmlns="http://www.w3.org/2000/svg">
<path d="M19.5617 14.5263L15.5188 12.7139L15.5034 12.707C15.2406 12.5938 14.9536 12.5481 14.6686 12.5744C14.3837 12.6006 14.1098 12.6979 13.8721 12.8573C13.8388 12.8796 13.8067 12.9037 13.776 12.9294L11.8606 14.5606C10.7445 13.9554 9.59149 12.8118 8.98537 11.7094L10.6217 9.76399C10.648 9.73259 10.6724 9.69962 10.6947 9.66526C10.8499 9.42844 10.9441 9.1569 10.969 8.87485C10.9939 8.59279 10.9486 8.30896 10.8372 8.04864C10.8346 8.04365 10.8323 8.03849 10.8304 8.03318L9.01885 3.98348C8.87016 3.64481 8.61638 3.363 8.29507 3.17978C7.97377 2.99655 7.60201 2.92163 7.23482 2.96611C5.98854 3.12983 4.84448 3.74161 4.01629 4.68718C3.1881 5.63275 2.73243 6.84746 2.73438 8.10444C2.73438 15.1109 8.43419 20.8108 15.4407 20.8108C16.6977 20.8127 17.9124 20.357 18.858 19.5288C19.8035 18.7007 20.4153 17.5566 20.579 16.3103C20.6235 15.9431 20.5486 15.5714 20.3654 15.2501C20.1821 14.9288 19.9003 14.675 19.5617 14.5263ZM15.4407 18.7503C12.6183 18.7469 9.91246 17.6242 7.91672 15.6284C5.92098 13.6327 4.79827 10.9268 4.79486 8.10444C4.7929 7.39314 5.03438 6.70258 5.47918 6.14751C5.92399 5.59245 6.54533 5.20629 7.23997 5.05321L8.85573 8.65906L7.21078 10.6182C7.18419 10.6499 7.15953 10.6832 7.13694 10.7178C6.97481 10.9656 6.87949 11.251 6.86023 11.5464C6.84098 11.8419 6.89844 12.1373 7.02705 12.404C7.83579 14.0592 9.50221 15.7145 11.1746 16.5249C11.4431 16.6522 11.74 16.7077 12.0363 16.6858C12.3326 16.664 12.6182 16.5657 12.8651 16.4005C12.8983 16.3781 12.9301 16.3537 12.9604 16.3275L14.8861 14.6903L18.4919 16.3052C18.3388 16.9998 17.9527 17.6211 17.3976 18.0659C16.8425 18.5108 16.152 18.7522 15.4407 18.7503Z" fill="#CDAE5D"/>
</svg>
