<svg width="45" height="45" viewBox="0 0 45 45" fill="none" xmlns="http://www.w3.org/2000/svg">
<path d="M35.7 13.6667V10.3333C35.7 8.495 34.2199 7 32.4 7H10.95C8.2209 7 6 9.24333 6 12V32C6 35.6683 8.9601 37 10.95 37H35.7C37.5199 37 39 35.505 39 33.6667V17C39 15.1617 37.5199 13.6667 35.7 13.6667ZM10.95 10.3333H32.4V13.6667H10.95C10.5252 13.6475 10.124 13.4635 9.83011 13.153C9.53619 12.8426 9.37216 12.4296 9.37216 12C9.37216 11.5704 9.53619 11.1574 9.83011 10.847C10.124 10.5365 10.5252 10.3525 10.95 10.3333ZM35.7 33.6667H10.9698C10.2075 33.6467 9.3 33.3417 9.3 32V16.6917C9.8181 16.88 10.3675 17 10.95 17H35.7V33.6667Z" fill="#CDAE5D"/>
<path d="M29 22H32.75V29.5H29V22Z" fill="#CDAE5D"/>
</svg>
