<svg width="45" height="45" viewBox="0 0 45 45" fill="none" xmlns="http://www.w3.org/2000/svg">
<path d="M23.8588 5.85582L28.1497 14.631C28.2473 14.8537 28.4008 15.0466 28.595 15.1905C28.7891 15.3344 29.0171 15.4242 29.2562 15.4511L38.7285 16.8726C39.0028 16.9083 39.2613 17.0223 39.474 17.2013C39.6867 17.3803 39.8447 17.6169 39.9296 17.8835C40.0145 18.1501 40.0228 18.4357 39.9535 18.7068C39.8841 18.978 39.7401 19.2236 39.5381 19.4149L32.7105 26.2765C32.5362 26.4414 32.4054 26.6478 32.33 26.877C32.2546 27.1062 32.237 27.3508 32.2787 27.5886L33.9249 37.2385C33.9725 37.5158 33.9424 37.8011 33.8379 38.0619C33.7334 38.3227 33.5588 38.5485 33.3338 38.7137C33.1089 38.8789 32.8427 38.9769 32.5655 38.9964C32.2883 39.0159 32.0113 38.9562 31.7659 38.8241L23.2381 34.2588C23.0198 34.1502 22.7798 34.0938 22.5365 34.0938C22.2932 34.0938 22.0532 34.1502 21.8348 34.2588L13.307 38.8241C13.0617 38.9562 12.7847 39.0159 12.5075 38.9964C12.2303 38.9769 11.9641 38.8789 11.7392 38.7137C11.5142 38.5485 11.3396 38.3227 11.2351 38.0619C11.1306 37.8011 11.1004 37.5158 11.1481 37.2385L12.7943 27.4793C12.836 27.2414 12.8184 26.9968 12.743 26.7676C12.6675 26.5385 12.5368 26.332 12.3625 26.1671L5.45392 19.4149C5.24953 19.2183 5.10579 18.966 5.04012 18.6883C4.97444 18.4107 4.98965 18.1197 5.0839 17.8507C5.17815 17.5816 5.34739 17.346 5.57113 17.1724C5.79486 16.9988 6.0635 16.8947 6.34448 16.8726L15.8168 15.4511C16.0559 15.4242 16.2839 15.3344 16.478 15.1905C16.6722 15.0466 16.8257 14.8537 16.9233 14.631L21.2141 5.85582C21.331 5.60024 21.5176 5.38386 21.7519 5.23222C21.9862 5.08058 22.2584 5 22.5365 5C22.8145 5 23.0868 5.08058 23.3211 5.23222C23.5554 5.38386 23.742 5.60024 23.8588 5.85582Z" stroke="#CDAE5D" stroke-width="3.21429" stroke-linecap="round" stroke-linejoin="round"/>
</svg>
